<svg width="80" height="113" viewBox="0 0 80 113" fill="none" xmlns="http://www.w3.org/2000/svg">
<path d="M78.9509 0.136192C79.5395 4.28254 79.2603 15.5261 73.4347 27.3323C66.1533 42.0887 46.417 69.6163 45.3403 69.8269C45.28 69.8384 45.2142 69.9237 45.1423 70.0741L41.9872 102.608L27.0148 91.4658C19.045 102.359 4.1928 118.666 3.91252 110.205C3.72303 104.482 8.72396 92.409 13.8959 81.7036L0.168822 71.4884L13.5107 64.3779C19.5426 60.3619 27.2453 56.192 27.1593 55.4676C27.02 54.3058 45.5481 25.8167 56.4665 13.9305C65.201 4.42173 75.0954 0.772338 78.9509 0.136192Z" fill="url(#paint0_linear_38_65)"/>
<defs>
<linearGradient id="paint0_linear_38_65" x1="51.1704" y1="-6.64449" x2="-10.7687" y2="130.784" gradientUnits="userSpaceOnUse">
<stop stop-color="#383B51"/>
<stop offset="1" stop-color="#383B51"/>
</linearGradient>
</defs>
</svg>
